<svg width="351" height="230" viewBox="0 0 351 230" fill="none" xmlns="http://www.w3.org/2000/svg">
<g clip-path="url(#clip0_7_40798)">
<rect width="351" height="230" rx="12.5" fill="#F7FAFC"/>
<path d="M75.3434 136.578L68.182 136.719L64.5361 136.781C63.3226 136.781 62.1038 136.781 60.8903 136.807H60.6611V136.578L60.6299 130.474V130.208H60.8903L68.1143 130.24C70.5205 130.24 72.9268 130.297 75.333 130.323H75.4788V130.464C75.4788 131.505 75.432 132.547 75.4111 133.542L75.3434 136.578ZM75.3434 136.578L75.2705 133.495C75.2705 132.479 75.2132 131.474 75.2028 130.474L75.3434 130.615C72.9372 130.615 70.5309 130.698 68.1247 130.698L60.9007 130.735L61.1611 130.474V136.578L60.9268 136.344C62.1195 136.344 63.307 136.344 64.4997 136.344L68.0882 136.406L75.3434 136.578Z" fill="#C6CED9"/>
<path d="M67.2863 144.271L60.1248 144.417L56.479 144.474C55.2655 144.5 54.0467 144.474 52.8332 144.505H52.604V144.271V138.167V137.906H52.8644L60.0884 137.943C62.4946 137.943 64.9009 138 67.3071 138.026H67.453V138.167C67.453 139.208 67.4061 140.25 67.3853 141.25L67.2863 144.271ZM67.2863 144.271L67.2134 141.187C67.2134 140.172 67.1561 139.167 67.1457 138.167L67.2863 138.312C64.88 138.339 62.4738 138.396 60.0675 138.396L52.8436 138.427L53.104 138.167L53.078 144.271L52.8436 144.042C54.0363 144.042 55.2238 144.042 56.4165 144.068L60.005 144.125L67.2863 144.271Z" fill="#C6CED9"/>
<path d="M282.964 119.547L275.802 119.693L272.156 119.75C270.943 119.776 269.724 119.75 268.51 119.782H268.276V119.547L268.25 113.443V113.183H268.516L275.734 113.219C278.146 113.219 280.552 113.276 282.958 113.302H283.099V113.443C283.099 114.485 283.057 115.526 283.031 116.526L282.964 119.547ZM282.964 119.547L282.891 116.464C282.891 115.448 282.833 114.443 282.823 113.443L282.964 113.589C280.557 113.615 278.151 113.672 275.74 113.672L268.521 113.703L268.781 113.443L268.75 119.547L268.521 119.318C269.708 119.318 270.896 119.318 272.094 119.344L275.682 119.401L282.964 119.547Z" fill="#C6CED9"/>
<path d="M176.651 35.7708L169.489 35.9167L165.844 35.974C164.63 36 163.411 35.974 162.198 36.0052H161.979V35.7708L161.948 29.6667V29.4062H162.208L169.432 29.4375C171.838 29.4375 174.245 29.5 176.651 29.526H176.797V29.6667C176.797 30.7083 176.75 31.75 176.729 32.75L176.651 35.7708ZM176.651 35.7708L176.578 32.6875C176.578 31.6458 176.521 30.6667 176.51 29.6667L176.651 29.8073C174.245 29.8385 171.838 29.8906 169.432 29.8958L162.208 29.9271L162.469 29.6667L162.443 35.7708L162.208 35.5365C163.401 35.5365 164.588 35.5365 165.781 35.5677L169.37 35.625L176.651 35.7708Z" fill="#C6CED9"/>
<path d="M168.463 43.4689L161.302 43.6147L157.656 43.672C156.442 43.672 155.224 43.672 154.01 43.6981H153.781V43.4637L153.755 37.3595V37.0991H154.015L161.239 37.1304C163.646 37.1304 166.057 37.1877 168.463 37.2137H168.604V37.3543C168.604 38.396 168.557 39.4377 168.536 40.4377L168.463 43.4689ZM168.463 43.4689L168.39 40.3856C168.364 39.37 168.328 38.3647 168.317 37.3647L168.463 37.5054C166.057 37.5054 163.646 37.5887 161.239 37.5887L154.015 37.6252L154.276 37.3647L154.25 43.4689L154.015 43.2345C155.208 43.2345 156.396 43.2345 157.588 43.2658L161.182 43.3231L168.463 43.4689Z" fill="#C6CED9"/>
<path d="M160.271 35.7708L153.109 35.9167L149.463 35.974C148.25 36 147.031 35.974 145.817 36.0052H145.583V35.7708V29.6667V29.4062H145.843L153.062 29.4375C155.474 29.4375 157.88 29.5 160.286 29.526H160.416V29.6667C160.416 30.7083 160.375 31.75 160.349 32.75L160.271 35.7708ZM160.271 35.7708L160.198 32.6875C160.172 31.6458 160.14 30.6667 160.13 29.6667L160.271 29.8073C157.864 29.8385 155.458 29.8906 153.047 29.8958L145.828 29.9271L146.088 29.6667L146.057 35.7708L145.828 35.5365C147.015 35.5365 148.203 35.5365 149.401 35.5677L152.989 35.625L160.271 35.7708Z" fill="#C6CED9"/>
<g opacity="0.5">
<path d="M91.8799 51.4325V26.5679H67.0153V51.4325H91.8799Z" fill="#C6CED9"/>
<path d="M88.0259 47.5729V30.4219H70.8748V47.5729H88.0259Z" fill="white"/>
<path d="M88.0256 30.4219H70.8745V47.5729L88.0256 30.4219Z" fill="#ECEFF2"/>
<path d="M64.5828 51.4272H67.0151V26.5627H64.5828V51.4272Z" fill="#D9DFE6"/>
<path d="M122.817 51.4325V26.5679H97.9528V51.4325H122.817Z" fill="#C6CED9"/>
<path d="M118.963 47.5729V30.4219H101.812V47.5729H118.963Z" fill="white"/>
<path d="M113.927 30.4219H101.812V42.5365L113.927 30.4219Z" fill="#ECEFF2"/>
<path d="M95.5257 51.4272H97.958V26.5627H95.5257V51.4272Z" fill="#D9DFE6"/>
<path d="M122.661 94.3439V61.8491H67.0205V94.3439H122.661Z" fill="#C6CED9"/>
<path d="M118.599 90.3231V65.8647H71.083V90.3231H118.599Z" fill="white"/>
<path d="M102.229 65.8701H71.0776V81.9014L102.229 65.8701Z" fill="#ECEFF2"/>
<path d="M64.5828 94.3438H67.0151V61.849H64.5828V94.3438Z" fill="#D9DFE6"/>
</g>
<g opacity="0.5">
<path d="M171.875 219.125C230.075 219.125 277.255 214.007 277.255 207.693C277.255 201.379 230.075 196.261 171.875 196.261C113.675 196.261 66.4946 201.379 66.4946 207.693C66.4946 214.007 113.675 219.125 171.875 219.125Z" fill="#D9DFE6"/>
</g>
<path d="M60.7861 192.631L88.557 192.506L116.328 192.459L171.875 192.37L227.416 192.459L255.192 192.506L282.963 192.631L255.192 192.761L227.416 192.808L171.875 192.891L116.328 192.802L88.557 192.761L60.7861 192.631Z" fill="#39434F"/>
<path d="M257.651 162.292C265.12 169.584 266.37 180.912 264.797 190.818C264.755 191.042 264.411 190.98 264.411 190.771C264.411 188.516 264.479 186.282 264.469 184.053C264.432 183.954 264.396 183.855 264.354 183.756C262.406 182.334 260.614 180.735 259.505 178.547C258.255 176.094 257.765 173.339 256.812 170.766C256.724 170.521 256.984 170.594 257.156 170.719C261.698 174.068 263.146 177.672 264.448 182.49C264.419 179.971 264.154 177.46 263.656 174.99C262.672 170.417 260.734 165.891 257.448 162.49C257.333 162.36 257.521 162.162 257.651 162.292Z" fill="#202326"/>
<path d="M256.25 163.146C254.963 163.188 254.166 165.23 253.156 165.839C253.051 165.925 252.93 165.989 252.799 166.025C252.669 166.061 252.532 166.069 252.398 166.048C252.264 166.027 252.136 165.979 252.023 165.905C251.909 165.831 251.813 165.734 251.739 165.62C250.75 164.235 252.109 162.527 253.39 161.568C252.474 161.948 251.713 162.61 250.729 162.797C250.602 162.838 250.468 162.851 250.336 162.836C250.204 162.821 250.077 162.777 249.963 162.709C249.849 162.64 249.751 162.548 249.675 162.438C249.6 162.329 249.549 162.204 249.526 162.073C249.088 160.188 251.458 159.349 253.083 159.308C252.296 158.761 250.036 157.271 251.239 156.542C252.442 155.813 255.099 157.933 255.963 158.625C257.234 159.667 258.75 161.193 258.807 162.792C258.88 164.698 257.234 163.542 256.25 163.146Z" fill="#B4DC8A"/>
<path opacity="0.1" d="M256.25 163.146C254.963 163.188 254.166 165.23 253.156 165.839C253.051 165.925 252.93 165.989 252.799 166.025C252.669 166.061 252.532 166.069 252.398 166.048C252.264 166.027 252.136 165.979 252.023 165.905C251.909 165.831 251.813 165.734 251.739 165.62C250.75 164.235 252.109 162.527 253.39 161.568C252.474 161.948 251.713 162.61 250.729 162.797C250.602 162.838 250.468 162.851 250.336 162.836C250.204 162.821 250.077 162.777 249.963 162.709C249.849 162.64 249.751 162.548 249.675 162.438C249.6 162.329 249.549 162.204 249.526 162.073C249.088 160.188 251.458 159.349 253.083 159.308C252.296 158.761 250.036 157.271 251.239 156.542C252.442 155.813 255.099 157.933 255.963 158.625C257.234 159.667 258.75 161.193 258.807 162.792C258.88 164.698 257.234 163.542 256.25 163.146Z" fill="#39434F"/>
<path d="M256.619 163.464C254.979 162.714 251.822 163.792 251.552 163.167C251.031 161.901 253.531 161.037 254.89 160.865C253.64 160.526 251.244 159.985 251.312 158.781C251.4 157.307 254.994 158.578 256.812 159.969C259.104 161.729 259.088 163.422 258.713 163.761C258.192 164.224 256.89 163.584 256.619 163.464Z" fill="#B4DC8A"/>
<path d="M274.656 161.568C266.917 168.589 265.234 179.844 266.432 189.802C266.463 190.026 266.812 189.979 266.818 189.771C266.906 187.516 266.922 185.281 267.015 183.052L267.14 182.76C269.14 181.417 270.995 179.885 272.187 177.734C273.526 175.333 274.12 172.589 275.172 170.063C275.271 169.823 275.005 169.885 274.828 170.005C270.14 173.177 268.578 176.724 267.094 181.464C267.216 178.947 267.577 176.448 268.172 174C269.323 169.469 271.437 165.016 274.849 161.75C275 161.651 274.792 161.458 274.656 161.568Z" fill="#202326"/>
<path d="M276.041 162.5C277.322 162.594 278.051 164.677 279.025 165.313C279.127 165.402 279.247 165.47 279.377 165.51C279.506 165.55 279.643 165.562 279.777 165.546C279.912 165.53 280.042 165.486 280.158 165.416C280.275 165.346 280.375 165.252 280.453 165.141C281.494 163.797 280.203 162.016 278.958 161.037C279.859 161.448 280.593 162.136 281.562 162.36C281.686 162.406 281.819 162.425 281.952 162.415C282.084 162.406 282.213 162.368 282.33 162.304C282.446 162.24 282.548 162.152 282.627 162.046C282.707 161.94 282.763 161.818 282.791 161.688C283.312 159.818 280.963 158.886 279.338 158.787C280.145 158.266 282.463 156.87 281.291 156.089C280.119 155.308 277.374 157.339 276.484 158.005C275.176 158.985 273.604 160.464 273.489 162.073C273.338 163.927 275.025 162.828 276.041 162.5Z" fill="#B4DC8A"/>
<path opacity="0.1" d="M276.041 162.5C277.322 162.594 278.051 164.677 279.025 165.313C279.127 165.402 279.247 165.47 279.377 165.51C279.506 165.55 279.643 165.562 279.777 165.546C279.912 165.53 280.042 165.486 280.158 165.416C280.275 165.346 280.375 165.252 280.453 165.141C281.494 163.797 280.203 162.016 278.958 161.037C279.859 161.448 280.593 162.136 281.562 162.36C281.686 162.406 281.819 162.425 281.952 162.415C282.084 162.406 282.213 162.368 282.33 162.304C282.446 162.24 282.548 162.152 282.627 162.046C282.707 161.94 282.763 161.818 282.791 161.688C283.312 159.818 280.963 158.886 279.338 158.787C280.145 158.266 282.463 156.87 281.291 156.089C280.119 155.308 277.374 157.339 276.484 158.005C275.176 158.985 273.604 160.464 273.489 162.073C273.338 163.927 275.025 162.828 276.041 162.5Z" fill="#39434F"/>
<path d="M275.64 162.776C277.312 162.094 280.427 163.297 280.718 162.677C281.307 161.433 278.822 160.469 277.468 160.25C278.734 159.959 281.151 159.511 281.114 158.297C281.083 156.818 277.442 157.953 275.572 159.276C273.213 160.943 273.166 162.641 273.531 162.99C274.041 163.479 275.369 162.891 275.64 162.776Z" fill="#B4DC8A"/>
<path d="M266.739 180.109C266.219 183.866 265.417 187.578 264.338 191.214C264.311 191.267 264.266 191.31 264.212 191.336C264.157 191.362 264.095 191.37 264.036 191.357C263.977 191.345 263.924 191.313 263.884 191.268C263.845 191.222 263.821 191.165 263.817 191.104C264.338 187.682 265.255 184.333 265.76 180.901C266.319 177.441 266.519 173.933 266.359 170.432C266.031 164.667 264.463 158.537 260.703 154.026C260.62 153.917 260.797 153.766 260.88 153.865C268.39 162.646 267.187 173.438 267.187 174.38C268.255 170.734 269.354 166.568 273.385 162.875C273.557 162.714 273.692 162.792 273.666 163.063C272.942 169.802 271.062 173.323 267.161 176.927C267.054 178 266.913 179.061 266.739 180.109Z" fill="#202326"/>
<path d="M260.614 155.037C259.26 154.433 257.39 156.157 256.052 156.276C255.9 156.312 255.743 156.315 255.589 156.286C255.436 156.257 255.291 156.196 255.163 156.107C255.035 156.018 254.927 155.903 254.846 155.77C254.765 155.637 254.712 155.488 254.693 155.334C254.359 153.396 256.63 152.308 258.442 151.959C257.302 151.891 256.182 152.193 255.062 151.891C254.907 151.873 254.758 151.82 254.626 151.738C254.493 151.656 254.38 151.546 254.295 151.415C254.209 151.284 254.154 151.137 254.131 150.982C254.109 150.828 254.121 150.67 254.166 150.521C254.687 148.344 257.547 148.662 259.25 149.438C258.729 148.474 257.12 145.792 258.729 145.641C260.338 145.49 262.036 149.032 262.583 150.193C263.38 151.901 264.177 154.261 263.427 155.959C262.568 157.969 261.458 155.943 260.614 155.037Z" fill="#B4DC8A"/>
<path opacity="0.1" d="M260.614 155.037C259.26 154.433 257.39 156.157 256.052 156.276C255.9 156.312 255.743 156.315 255.589 156.286C255.436 156.257 255.291 156.196 255.163 156.107C255.035 156.018 254.927 155.903 254.846 155.77C254.765 155.637 254.712 155.488 254.693 155.334C254.359 153.396 256.63 152.308 258.442 151.959C257.302 151.891 256.182 152.193 255.062 151.891C254.907 151.873 254.758 151.82 254.626 151.738C254.493 151.656 254.38 151.546 254.295 151.415C254.209 151.284 254.154 151.137 254.131 150.982C254.109 150.828 254.121 150.67 254.166 150.521C254.687 148.344 257.547 148.662 259.25 149.438C258.729 148.474 257.12 145.792 258.729 145.641C260.338 145.49 262.036 149.032 262.583 150.193C263.38 151.901 264.177 154.261 263.427 155.959C262.568 157.969 261.458 155.943 260.614 155.037Z" fill="#39434F"/>
<path d="M260.844 155.552C259.515 153.948 255.698 153.469 255.734 152.698C255.807 151.11 258.859 151.479 260.354 151.99C259.224 151.005 257.005 149.235 257.692 148.021C258.526 146.531 261.62 149.656 262.802 152.021C264.297 154.995 263.427 156.75 262.864 156.912C262.088 157.13 261.062 155.813 260.844 155.552Z" fill="#B4DC8A"/>
<path d="M271.698 182.141L275 207.521H254.807C255.224 205.271 258.974 182.11 258.974 182.11L271.698 182.141Z" fill="#B4DC8A"/>
<path d="M211.895 134.599C211.888 134.735 211.83 134.863 211.734 134.959C211.638 135.055 211.51 135.113 211.374 135.12L209.119 135.031C207.666 129.589 205.942 125.203 206.338 126.886C206.927 129.525 207.117 132.237 206.9 134.933L202.453 134.683C201.687 125.308 200.176 118.224 200.093 120.349C199.749 128.906 198.958 131.584 198.062 134.438C187.328 133.802 173.265 132.823 163.114 131.891C162.484 126.683 162.041 121.063 161.822 121.427C160.135 124.162 159.317 128.292 158.947 131.5C155.718 131.183 153.145 130.87 151.583 130.599C151.583 130.599 151.281 126.24 151.322 124.818C151.419 121.176 152.187 117.583 153.588 114.219C155.041 110.766 157.234 107.808 159.317 104.766C159.33 104.742 159.346 104.719 159.364 104.698C159.364 104.698 159.364 104.698 159.364 104.672C160.745 102.697 161.885 100.564 162.76 98.3179C162.764 98.3025 162.764 98.2864 162.76 98.271C163.363 96.6441 163.823 94.9676 164.135 93.2606C165.27 87.0106 169.385 81.9638 175.468 80.9221C186.541 73.6877 198.447 77.1929 200.989 85.6096C201.234 86.4325 201.453 87.3648 201.656 88.3804V88.4117C202.411 92.1617 202.937 96.9846 203.494 100.729C203.494 100.729 203.494 100.729 203.494 100.771C203.693 102.238 203.987 103.691 204.374 105.12C206.572 112.005 212.619 116.406 211.895 134.599Z" fill="#202326"/>
<path d="M172.791 82.3906C168.698 84 166.02 86.7031 164.921 91.2448C164.286 93.8802 163.833 96.4531 162.541 98.8906C161.25 101.328 159.302 103.344 157.333 105.292C154.208 108.417 151.968 111.573 151.083 116.031C150.198 120.49 149.817 125.974 150.906 130.401H150.948C150.151 125.943 150.755 119.953 151.989 115.5C153.364 110.615 156.515 107.776 159.802 104.297C162.416 101.597 164.252 98.2411 165.114 94.5833C165.635 92.3489 165.859 89.9844 167 87.9427C168.359 85.5104 170.703 84.1146 173.01 82.901C173.044 82.8867 173.074 82.8658 173.099 82.8397C173.125 82.8136 173.145 82.7828 173.158 82.7489C173.172 82.7151 173.179 82.6789 173.178 82.6424C173.178 82.606 173.17 82.57 173.156 82.5364C173.142 82.5029 173.121 82.4726 173.095 82.4471C173.068 82.4216 173.038 82.4016 173.004 82.388C172.97 82.3745 172.934 82.3677 172.897 82.3682C172.861 82.3686 172.825 82.3762 172.791 82.3906Z" fill="#202326"/>
<path d="M210.202 112.865C207.843 109.016 205.317 105.677 204.182 101.089C203.14 96.9219 202.765 92.5573 201.708 88.3802C201.708 88.3664 201.702 88.3532 201.692 88.3434C201.683 88.3336 201.669 88.3281 201.656 88.3281C201.642 88.3281 201.629 88.3336 201.619 88.3434C201.609 88.3532 201.604 88.3664 201.604 88.3802C203.14 95.7656 202.817 103.021 206.812 109.516C208.973 113.047 211.161 116.333 212.4 120.422C213.644 124.703 214.061 129.182 213.63 133.62C213.63 133.776 213.817 133.792 213.848 133.62C215.275 126.489 213.974 119.082 210.202 112.865Z" fill="#202326"/>
<path d="M238.916 102.234L224.442 129.489C223.921 130.266 224.177 131.052 225.015 131.271L240.01 134.963C240.477 135.04 240.956 134.982 241.392 134.798C241.828 134.614 242.203 134.31 242.474 133.922L256.948 106.667C257.468 105.891 257.208 105.104 256.375 104.885L241.38 101.198C240.913 101.12 240.434 101.176 239.998 101.359C239.562 101.543 239.187 101.846 238.916 102.234Z" fill="#606873"/>
<path d="M240.698 102.656L226.224 129.912C225.703 130.688 225.963 131.474 226.802 131.693L241.796 135.386C242.263 135.463 242.741 135.406 243.177 135.221C243.612 135.037 243.986 134.733 244.255 134.344L258.729 107.084C259.25 106.307 258.994 105.521 258.156 105.302L243.161 101.615C242.694 101.537 242.214 101.594 241.778 101.778C241.342 101.963 240.967 102.267 240.698 102.656Z" fill="#606873"/>
<path d="M244.484 104.995C244.416 105.245 244.276 105.47 244.081 105.641C243.885 105.812 243.644 105.921 243.386 105.954C243.129 105.988 242.868 105.944 242.635 105.829C242.402 105.714 242.209 105.533 242.079 105.308C241.95 105.083 241.89 104.825 241.907 104.566C241.924 104.307 242.018 104.059 242.176 103.853C242.334 103.647 242.55 103.493 242.796 103.41C243.041 103.326 243.306 103.318 243.557 103.385C243.724 103.43 243.88 103.507 244.016 103.612C244.153 103.717 244.268 103.848 244.354 103.998C244.44 104.147 244.496 104.312 244.518 104.483C244.541 104.654 244.529 104.828 244.484 104.995Z" fill="#202326"/>
<path d="M177.656 139.865C183.906 159.453 200.218 185.964 208.25 187.125C212.072 187.677 218.791 189.49 224.395 185.75C236.619 177.583 248.807 161.271 252.588 151.766C254.005 148.208 235.463 136.016 232.38 138.708C225.156 145.01 216.005 158.047 214.906 157.818C210.828 156.964 196.473 141.438 186.468 130.516C174.317 117.255 175.166 132.057 177.656 139.865Z" fill="#FFC4C0"/>
<path d="M257.041 134.604C257.041 126.708 255.843 124.677 259.395 118.016C261.729 113.646 259.916 110.281 255.677 113.177C248.708 117.917 246.552 128.099 246.823 131.849L257.041 134.604Z" fill="#FFC4C0"/>
<path d="M250.093 156.339C250.093 156.339 256.046 146.844 256.895 138.427C257.478 132.609 257.343 119.802 243.275 109.469C239.937 107.016 233.442 105.891 237.437 111.875C240.275 116.125 243.364 117.964 244.562 120.729C244.562 120.729 236.135 120.281 233.806 123.719C231.783 126.73 229.974 129.88 228.395 133.146C228.927 133.572 229.485 133.963 230.067 134.318C230.067 134.318 227.984 137.609 229.353 143.375L250.093 156.339Z" fill="#FFC4C0"/>
<path d="M256.567 132.813C254.791 130.313 250.942 125.073 246.307 121.875C241.15 118.334 230.27 112.901 227.697 116.735C225.812 119.542 229.78 121.979 229.78 121.979C229.78 121.979 224.812 120.683 223.661 123.594C222.619 126.245 225.796 127.948 225.796 127.948C225.796 127.948 222.671 127.677 222.15 130.427C221.525 133.735 228.234 133.755 230.484 137.651C230.999 138.511 256.567 132.813 256.567 132.813Z" fill="#FFC4C0"/>
<path d="M243.499 127.927C241.442 125.844 235.567 122.328 229.921 121.906C229.796 121.906 229.718 121.99 229.833 122.021C234.601 123.447 239.178 125.448 243.463 127.979C243.468 127.995 243.499 127.953 243.499 127.927Z" fill="#202326"/>
<path d="M239.744 133.026C237.786 131.417 231.572 128.057 225.838 127.818C225.708 127.818 225.64 127.912 225.755 127.938C230.587 129.115 235.27 130.838 239.713 133.073C239.744 133.094 239.77 133.047 239.744 133.026Z" fill="#202326"/>
<path d="M186.432 164.896L202.354 144.959C202.354 144.959 189.682 130.979 181.583 125.167C177.046 121.922 174.463 125.401 175.104 130.401C177.354 147.917 186.432 164.896 186.432 164.896Z" fill="#B4DC8A"/>
<path d="M186.432 164.896L202.354 144.959C202.354 144.959 189.682 130.979 181.583 125.167C177.046 121.922 174.463 125.401 175.104 130.401C177.354 147.917 186.432 164.896 186.432 164.896Z" fill="#B4DC8A"/>
<path opacity="0.1" d="M200.531 147.229L186.437 164.901C186.437 164.901 177.354 147.917 175.104 130.427C174.661 126.99 175.75 124.276 177.937 123.969L200.531 147.229Z" fill="#39434F"/>
<path d="M198.656 143.146C195.953 146.01 188.849 153.995 184.906 159.812C184.88 159.849 185.005 159.953 185.031 159.922C189.036 155.599 196.395 146.417 198.838 143.328C198.885 143.229 198.708 143.094 198.656 143.146Z" fill="#202326"/>
<path d="M128.515 192.943L197.177 192.781L193.38 169.172C193.38 169.172 198.812 162.583 197.786 155.438C196.656 147.625 182.536 127.75 181.348 126.63C176.567 122.146 171.505 121.339 166.645 122.958C144.182 137.073 128.515 192.943 128.515 192.943Z" fill="#B4DC8A"/>
<path d="M188.812 136.167C190.14 138.375 191.609 140.51 192.978 142.688C192.421 141.125 191.869 139.599 191.255 138.078C191.255 138.047 191.286 138.021 191.301 138.052C192.275 139.881 193.071 141.8 193.676 143.781C194.714 145.428 195.641 147.142 196.452 148.911C197.452 151.028 198.081 153.301 198.312 155.63C198.461 157.978 198.13 160.332 197.338 162.547C196.403 165.087 195.238 167.536 193.859 169.865C193.682 170.177 193.249 169.891 193.395 169.578C195.343 165.411 197.494 161.057 197.301 156.349C197.109 151.641 194.937 147.401 192.812 143.365C191.577 140.903 190.185 138.523 188.645 136.24C188.577 136.161 188.739 136.068 188.812 136.167Z" fill="#202326"/>
<path d="M182.515 167.37C179.707 167.62 176.922 168.078 174.182 168.74C172.822 169.089 171.489 169.495 170.161 169.932C169.494 170.151 168.828 170.349 168.156 170.542C167.459 170.763 166.739 170.899 166.01 170.948C166 170.951 165.99 170.958 165.984 170.967C165.978 170.976 165.974 170.987 165.974 170.998C165.974 171.008 165.978 171.019 165.984 171.028C165.99 171.037 166 171.044 166.01 171.047C166.704 171.082 167.4 171.07 168.093 171.011C168.757 170.93 169.415 170.805 170.062 170.636C171.442 170.297 172.807 169.891 174.187 169.537C176.963 168.823 179.739 168.11 182.562 167.599C182.677 167.578 182.645 167.354 182.515 167.37Z" fill="#202326"/>
<path d="M189.452 169.854C187.139 169.613 184.815 169.502 182.489 169.521C181.322 169.521 180.171 169.614 179.01 169.729C178.458 169.781 177.906 169.844 177.354 169.916C176.749 169.995 176.15 170.151 175.541 170.219C175.479 170.219 175.479 170.328 175.541 170.323C176.114 170.271 176.697 170.323 177.275 170.323L179.015 170.276C180.176 170.276 181.333 170.234 182.494 170.193C184.817 170.114 187.13 170.062 189.452 170.062C189.583 170.047 189.572 169.87 189.452 169.854Z" fill="#202326"/>
<path d="M158.4 129.167C140.895 147.474 119.166 185.781 123.468 193.401C128.26 201.891 153.281 175.948 152.489 174.698C151.817 173.656 160.729 150.422 167.072 133.552C173.416 116.682 162.723 124.615 158.4 129.167Z" fill="#FFC4C0"/>
<path d="M136.973 151.125L162.083 155.646C162.083 155.646 168.333 137.849 169.598 127.974C170.291 122.438 167.041 122.208 162.947 125.151C148.619 135.448 136.973 151.125 136.973 151.125Z" fill="#B4DC8A"/>
<path d="M161.921 151.531C158.114 150.516 147.713 148.063 140.744 147.365C140.703 147.365 140.666 147.516 140.708 147.526C146.437 148.995 157.989 151.099 161.869 151.781C161.942 151.776 161.989 151.563 161.921 151.531Z" fill="#202326"/>
<path d="M159.025 155.094C160.067 155.193 161.109 155.318 162.119 155.453L161.9 155.583C162.65 152.851 163.475 150.139 164.374 147.448C165.27 144.766 166.213 142.094 167.296 139.458C166.64 142.224 165.848 144.948 165.01 147.651C164.171 150.354 163.255 153.047 162.249 155.729L162.187 155.891L162.036 155.86C161.036 155.604 160.031 155.36 159.025 155.094Z" fill="#202326"/>
<path d="M165.635 144.875C165.858 144.323 166.145 143.798 166.489 143.312C166.83 142.813 167.209 142.341 167.624 141.901C167.568 142.202 167.468 142.493 167.327 142.765C167.198 143.038 167.046 143.299 166.874 143.547C166.532 144.05 166.113 144.498 165.635 144.875Z" fill="#202326"/>
<path d="M124.031 194.182C128.775 199.318 139.729 198.922 167.39 200.516C171.218 200.735 180.041 174.141 175.963 173.698C170.833 173.136 150.786 172.068 149.312 172.177C136.869 173.078 120.817 190.703 124.031 194.182Z" fill="#FFC4C0"/>
<path d="M170.406 173.203C170.406 173.203 182.057 173.37 188.151 175.349C196.312 178 202.265 183.651 204.614 186.172C209.526 191.427 217.76 207.526 213.536 210.708C209.708 213.589 202.125 196.703 202.125 196.703C202.125 196.703 212.697 212.641 207.458 215.266C202.218 217.891 194.541 197.781 194.541 197.781C194.541 197.781 205.041 214.401 199.229 216.25C194.822 217.646 186.828 199.833 186.828 199.833C186.828 199.833 195.755 214.182 191.281 215.813C186.343 217.615 177.932 201.635 177.932 201.635C165.869 203.865 159.213 199.995 154.807 196.677C153.703 195.875 170.406 173.203 170.406 173.203Z" fill="#FFC4C0"/>
<path d="M198.817 190.958C200.13 192.781 201.468 194.604 202.609 196.562C203.75 198.521 204.833 200.479 205.786 202.516C208.135 207.505 208.828 211 208.76 210.786C207.197 205.797 203.213 198.807 202.067 196.859C200.921 194.911 199.885 192.932 198.744 190.995C198.708 190.948 198.786 190.911 198.817 190.958Z" fill="#202326"/>
<path d="M191.75 194.958C193.312 197.365 194.968 199.693 196.437 202.167C197.906 204.641 199.041 207.099 200.349 209.656C200.447 209.854 200.307 209.844 200.203 209.656C198.812 207.151 197.338 204.969 195.921 202.458C194.505 199.948 193.187 197.427 191.687 195C191.666 194.953 191.724 194.922 191.75 194.958Z" fill="#202326"/>
<path d="M185.062 197.297C187.666 200.854 189.583 204.88 191.385 208.875C191.473 209.073 191.296 209.042 191.192 208.844C189.166 204.953 187.598 201.891 184.942 197.386C184.895 197.318 185.005 197.224 185.062 197.297Z" fill="#202326"/>
<path d="M139.067 176.562C140.734 175.208 145.51 171.916 150.614 172.062C150.671 172.062 150.682 172.14 150.614 172.146C146.479 172.625 140.828 175.448 139.109 176.63C139.1 176.632 139.091 176.632 139.083 176.628C139.075 176.625 139.068 176.619 139.063 176.611C139.059 176.604 139.057 176.595 139.057 176.586C139.058 176.577 139.062 176.569 139.067 176.562Z" fill="#202326"/>
<path d="M170.088 122.61C170.182 123.818 174.578 132.235 179.942 132.807C181.687 132.99 183.109 123.5 183.109 123.5L183.375 122.823L187.083 113.349L176.697 104.167L175.182 102.927C175.182 102.927 174.338 105.589 173.322 108.912C173.276 109.063 173.223 109.219 173.177 109.38C173.13 109.542 173.052 109.745 173.005 109.901C172.843 110.422 172.687 110.901 172.536 111.406C172.421 111.792 172.307 112.167 172.203 112.573C172.098 112.979 171.984 113.38 171.864 113.787C170.807 117.86 170.062 122.099 170.088 122.61Z" fill="#FFC4C0"/>
<path d="M173.322 108.922C173.889 111.83 175.081 114.579 176.817 116.98C178.553 119.38 180.79 121.374 183.374 122.823L187.083 113.349L176.697 104.167L175.182 102.927C175.182 102.927 174.338 105.599 173.322 108.922Z" fill="#202326"/>
<path d="M203.624 102.083C201.275 119.792 190.406 120.375 186.588 119.859C183.124 119.396 171.39 117.375 171.9 99.547C172.411 81.7188 181.385 77.198 189.364 77.8438C197.343 78.4897 205.999 84.3751 203.624 102.083Z" fill="#FFC4C0"/>
<path d="M201.083 100.162C200.696 100.019 200.317 99.8555 199.947 99.672C199.531 99.5491 199.166 99.2952 198.906 98.948C198.845 98.8216 198.827 98.6788 198.855 98.5415C198.884 98.4041 198.956 98.2798 199.062 98.1876C199.299 98.0364 199.573 97.9523 199.855 97.944C200.136 97.9358 200.415 98.0037 200.661 98.1407C201.202 98.3351 201.649 98.7254 201.916 99.2345C201.972 99.3549 201.992 99.4892 201.972 99.6207C201.953 99.7522 201.895 99.875 201.806 99.9738C201.717 100.073 201.601 100.143 201.473 100.177C201.344 100.21 201.208 100.205 201.083 100.162Z" fill="#202326"/>
<path d="M189.114 97.1251C189.525 97.1485 189.937 97.1485 190.349 97.1251C190.783 97.185 191.224 97.0989 191.604 96.8803C191.71 96.7886 191.783 96.6643 191.812 96.5267C191.84 96.3892 191.822 96.2461 191.76 96.1199C191.601 95.8881 191.383 95.7033 191.128 95.5851C190.874 95.4669 190.592 95.4195 190.312 95.448C189.745 95.4235 189.189 95.6089 188.75 95.9688C188.659 96.0563 188.594 96.1673 188.563 96.2893C188.532 96.4114 188.536 96.5397 188.574 96.6599C188.612 96.78 188.682 96.8872 188.778 96.9694C188.873 97.0516 188.99 97.1055 189.114 97.1251Z" fill="#202326"/>
<path d="M190.999 101.042C190.999 100.995 190.9 101.083 190.89 101.13C190.713 102.333 190.307 103.682 189.15 103.885C189.144 103.888 189.138 103.893 189.134 103.899C189.13 103.905 189.127 103.912 189.127 103.919C189.127 103.927 189.13 103.934 189.134 103.94C189.138 103.946 189.144 103.95 189.15 103.953C190.505 103.979 191.025 102.182 190.999 101.042Z" fill="#202326"/>
<path d="M190.161 99.5731C188.26 99.0523 187.416 102.912 189.172 103.37C190.927 103.828 191.75 100 190.161 99.5731Z" fill="#202326"/>
<path d="M189.364 99.6094C188.979 99.75 188.567 100.062 188.156 100.01C187.744 99.9583 187.416 99.4896 187.192 99.0208C187.192 98.9739 187.13 99.0208 187.119 99.0521C186.948 99.7864 187.062 100.615 187.823 100.885C188.583 101.156 189.182 100.604 189.526 99.9062C189.588 99.7812 189.515 99.5521 189.364 99.6094Z" fill="#202326"/>
<path d="M198.088 102.125C198.088 102.083 198.166 102.203 198.156 102.25C197.843 103.427 197.687 104.854 198.676 105.463C198.708 105.463 198.676 105.547 198.65 105.531C197.379 105.047 197.603 103.193 198.088 102.125Z" fill="#202326"/>
<path d="M199.427 101.13C201.369 101.422 200.64 105.297 198.843 105.011C197.046 104.724 197.802 100.886 199.427 101.13Z" fill="#202326"/>
<path d="M200.187 101.563C200.452 101.823 200.682 102.25 201.041 102.344C201.4 102.438 201.848 102.094 202.192 101.745C202.228 101.708 202.254 101.745 202.244 101.797C202.129 102.537 201.723 103.261 201.004 103.271C200.286 103.281 199.963 102.552 199.963 101.787C199.932 101.62 200.077 101.432 200.187 101.563Z" fill="#202326"/>
<path d="M189.109 111.25C189.317 111.599 189.494 112.052 189.911 112.203C190.35 112.313 190.808 112.329 191.254 112.25C191.263 112.249 191.272 112.251 191.28 112.256C191.287 112.26 191.293 112.267 191.297 112.275C191.3 112.283 191.301 112.292 191.299 112.301C191.297 112.31 191.292 112.317 191.286 112.323C191.056 112.51 190.78 112.63 190.488 112.671C190.195 112.713 189.896 112.673 189.624 112.557C189.402 112.431 189.222 112.241 189.108 112.012C188.993 111.783 188.95 111.525 188.984 111.271C188.984 111.198 189.077 111.198 189.109 111.25Z" fill="#202326"/>
<path d="M194.984 107.99C194.984 107.99 194.859 109.818 194.682 110.656C194.682 110.734 194.458 110.729 194.161 110.656C194.161 110.656 194.161 110.656 194.13 110.656C193.383 110.637 192.655 110.412 192.027 110.007C191.398 109.602 190.894 109.032 190.567 108.359C190.559 108.34 190.559 108.318 190.566 108.298C190.573 108.278 190.587 108.261 190.605 108.25C190.623 108.239 190.645 108.236 190.665 108.239C190.686 108.243 190.705 108.254 190.718 108.271C191.636 109.224 192.836 109.856 194.14 110.073C194.25 109.854 194.25 106.948 194.385 106.948C195.024 107.141 195.633 107.42 196.198 107.776C196.573 103.974 196.333 100.146 196.76 96.3646C196.76 96.3342 196.772 96.305 196.794 96.2836C196.815 96.2621 196.844 96.25 196.875 96.25C196.905 96.25 196.934 96.2621 196.956 96.2836C196.977 96.305 196.989 96.3342 196.989 96.3646C197.51 100.365 197.192 104.75 196.911 108.682C196.885 109.193 195.291 108.198 194.984 107.99Z" fill="#202326"/>
<path d="M176.728 80.6303C176.124 82.0313 168.077 82.9949 164.536 77.5626C161.046 72.2084 165.666 65.6199 172.067 68.7605C176.114 70.7501 178.005 77.6615 176.728 80.6303Z" fill="#202326"/>
<path d="M164.426 70.2032C165.798 68.7154 167.634 67.7368 169.635 67.4271C170.566 67.2634 171.524 67.3475 172.413 67.6712C173.301 67.9948 174.089 68.5465 174.697 69.2709C175.978 70.7136 176.64 72.6563 176.994 74.6146C177.159 75.6093 177.232 76.617 177.213 77.625C177.239 78.6481 177.075 79.6672 176.728 80.6302C177.286 79.7314 177.641 78.7219 177.77 77.6719C177.931 76.6156 177.966 75.5438 177.874 74.4792C177.743 72.2959 176.935 70.2078 175.562 68.5052C174.836 67.6365 173.879 66.9907 172.801 66.6424C171.724 66.294 170.57 66.2573 169.473 66.5365C168.427 66.7726 167.44 67.2195 166.572 67.8499C165.704 68.4803 164.974 69.2811 164.426 70.2032Z" fill="#202326"/>
<path d="M172.78 100.287C175.905 101.573 178.739 94.3751 178.739 94.3751C178.739 94.3751 193.166 95.7605 197.369 84.8438C197.369 84.8438 197.801 92.6563 204.14 97.8334C204.14 97.8334 206.984 85.3855 197.89 80.3595C197.89 80.3595 186.952 72.6824 177.577 80.4584C168.202 88.2345 170.682 99.4272 172.78 100.287Z" fill="#202326"/>
<path d="M197.666 84.0259C197.359 85.8036 196.678 87.4957 195.666 88.9894C194.668 90.5177 193.365 91.8228 191.838 92.8228C191.457 93.0715 191.063 93.2976 190.656 93.4998L190.057 93.828C189.848 93.9165 189.635 93.9946 189.421 94.078C188.994 94.2342 188.577 94.4113 188.145 94.5467C187.713 94.6821 187.265 94.7603 186.827 94.8592C186.604 94.9061 186.385 94.9634 186.166 94.9998L185.494 95.0727L184.156 95.2134C183.26 95.2134 182.364 95.1821 181.479 95.13C182.364 94.9946 183.249 94.9582 184.114 94.8175L185.411 94.5675L186.051 94.4478C186.265 94.3905 186.468 94.3175 186.676 94.255C187.093 94.1196 187.51 93.9946 187.926 93.8748C188.343 93.755 188.723 93.5363 189.119 93.354L189.718 93.0988L190.281 92.7863C190.664 92.5871 191.036 92.3663 191.395 92.1248C192.842 91.1772 194.116 89.9881 195.161 88.6092C195.694 87.9185 196.17 87.1851 196.583 86.4165C197.012 85.6523 197.374 84.8525 197.666 84.0259Z" fill="#202326"/>
<path d="M171.864 88.4946L170.416 89.7342L173.973 95.7446L177.15 92.9165L171.864 88.4946ZM174.307 93.9634L171.702 90.1144L172.036 89.8175L175.437 92.9894L174.307 93.9634Z" fill="#5B892A"/>
<path d="M173.265 85.8071L172.396 87.4998L177.953 91.7238L179.833 87.9061L173.265 85.8071ZM177.593 89.9738L173.744 87.3696L173.937 86.9686L178.281 88.6248L177.593 89.9738Z" fill="#5B892A"/>
<path d="M174.531 101.24C174.531 101.24 171.927 94.9533 169.166 95.7606C166.406 96.5678 167.505 105.094 170.161 106.818C170.487 107.062 170.859 107.238 171.255 107.335C171.65 107.431 172.061 107.447 172.463 107.381C172.865 107.315 173.249 107.168 173.593 106.95C173.937 106.731 174.233 106.445 174.463 106.11L174.531 101.24Z" fill="#FFC4C0"/>
<path d="M169.541 98.1978C169.494 98.1978 169.473 98.2446 169.51 98.2707C171.359 99.5467 172.01 101.667 172.322 103.786C171.885 102.901 171.156 102.307 169.989 102.802C169.926 102.828 169.958 102.922 170.02 102.922C170.403 102.889 170.786 102.976 171.117 103.168C171.449 103.361 171.713 103.652 171.874 104C172.137 104.586 172.337 105.199 172.468 105.828C172.525 106.031 172.874 106.005 172.854 105.781C172.854 105.781 172.854 105.745 172.854 105.729C173.479 103.151 172.27 99.078 169.541 98.1978Z" fill="#202326"/>
<path d="M239.965 29.6614V42.3023H236.394V29.6614C236.394 24.8578 232.746 20.9527 228.268 20.9527C223.789 20.9527 220.141 24.8578 220.141 29.6614V42.3023H216.57V29.6614C216.57 22.7811 221.821 17.1875 228.277 17.1875C234.733 17.1875 239.965 22.7811 239.965 29.6614Z" fill="#D9DFE6"/>
<path d="M216.552 32.9434L220.123 33.0878V42.2931H216.552V32.9434Z" fill="#B3BECD"/>
<path d="M239.965 33.8959V42.2931H236.394V33.7515L239.965 33.8959Z" fill="#B3BECD"/>
<path d="M244.538 35.1016H211.979V64.6407H244.538V35.1016Z" fill="#B4DC8A"/>
<path opacity="0.1" d="M244.538 35.1016H228.259V64.6407H244.538V35.1016Z" fill="#39434F"/>
<path d="M229.636 50.9524L230.99 57.4173H225.216L226.57 50.9524C226.036 50.6203 225.625 50.1232 225.398 49.5364C225.172 48.9496 225.143 48.3051 225.316 47.7003C225.489 47.0955 225.854 46.5635 226.356 46.1847C226.858 45.806 227.47 45.6011 228.098 45.6011C228.727 45.6011 229.339 45.806 229.841 46.1847C230.343 46.5635 230.708 47.0955 230.881 47.7003C231.054 48.3051 231.025 48.9496 230.798 49.5364C230.572 50.1232 230.161 50.6203 229.627 50.9524H229.636Z" fill="#202326"/>
</g>
<defs>
<clipPath id="clip0_7_40798">
<rect width="351" height="230" rx="12.5" fill="white"/>
</clipPath>
</defs>
</svg>
