<svg width="26" height="26" viewBox="0 0 26 26" fill="none" xmlns="http://www.w3.org/2000/svg">
<g id="Logo">
<path id="Shape" fill-rule="evenodd" clip-rule="evenodd" d="M25.48 13.2953C25.48 12.3735 25.3973 11.4871 25.2436 10.6362H13V15.6649H19.9964C19.695 17.2899 18.7791 18.6667 17.4023 19.5885V22.8503H21.6036C24.0618 20.5871 25.48 17.2544 25.48 13.2953Z" fill="#4285F4"/>
<path id="Shape_2" fill-rule="evenodd" clip-rule="evenodd" d="M13.0001 26.0002C16.5101 26.0002 19.4528 24.8361 21.6037 22.8507L17.4023 19.5888C16.2382 20.3688 14.7492 20.8298 13.0001 20.8298C9.61417 20.8298 6.74826 18.5429 5.72599 15.4702H1.38281V18.8384C3.5219 23.087 7.91826 26.0002 13.0001 26.0002Z" fill="#34A853"/>
<path id="Shape_3" fill-rule="evenodd" clip-rule="evenodd" d="M5.7259 15.4698C5.4659 14.6898 5.31817 13.8566 5.31817 12.9998C5.31817 12.143 5.4659 11.3098 5.7259 10.5298V7.16162H1.38273C0.502272 8.91662 0 10.9021 0 12.9998C0 15.0975 0.502272 17.083 1.38273 18.838L5.7259 15.4698Z" fill="#FBBC05"/>
<path id="Shape_4" fill-rule="evenodd" clip-rule="evenodd" d="M13.0001 5.17045C14.9087 5.17045 16.6223 5.82635 17.9696 7.11453L21.6982 3.3859C19.4469 1.28818 16.5042 0 13.0001 0C7.91826 0 3.5219 2.91318 1.38281 7.16181L5.72599 10.53C6.74826 7.45726 9.61416 5.17045 13.0001 5.17045Z" fill="#EA4335"/>
</g>
</svg>
