<svg width="28" height="28" viewBox="0 0 28 28" fill="none" xmlns="http://www.w3.org/2000/svg">
<path d="M25.2357 9.54499C25.0636 9.67202 22.0446 11.2871 22.0446 14.88C22.0446 19.0356 25.8853 20.5055 26 20.5417C25.9809 20.6324 25.3885 22.556 23.9745 24.5157C22.7134 26.2397 21.3948 27.9636 19.3885 27.9636C17.3822 27.9636 16.8662 26.8566 14.5541 26.8566C12.2994 26.8566 11.4968 27.9999 9.66235 27.9999C7.82794 27.9999 6.54764 26.403 5.07641 24.4432C3.37576 22.1385 2 18.5636 2 15.1703C2 9.72631 5.72618 6.84092 9.39482 6.84092C11.3439 6.84092 12.968 8.05679 14.1909 8.05679C15.3565 8.05679 17.1719 6.76836 19.3883 6.76836C20.2292 6.76853 23.2485 6.84127 25.2357 9.54499Z" fill="white"/>
<path d="M18.3377 4.46408C19.2548 3.42972 19.9045 1.99616 19.9045 0.5626C19.9045 0.363002 19.8855 0.163404 19.8472 0C18.3567 0.0544679 16.5797 0.9437 15.5095 2.12319C14.6688 3.03052 13.8853 4.46408 13.8853 5.91591C13.8853 6.13361 13.9236 6.35148 13.9427 6.42405C14.0381 6.44214 14.1911 6.46042 14.344 6.46042C15.6816 6.46024 17.363 5.60738 18.3377 4.46408Z" fill="white"/>
</svg>
